<svg xmlns="http://www.w3.org/2000/svg" width="105" height="56" viewBox="0 0 105 56">
            <g id="logo_拷貝_2" data-name="logo 拷貝 2" transform="translate(-54.1 -48.006)">
                <g id="Group_14" data-name="Group 14">
                    <g id="Group_13" data-name="Group 13">
                        <g id="Group_12" data-name="Group 12">
                            <path id="Path_15317" data-name="Path 15317" d="M57.367,103.713H54.1v-14.1h3.393c3.77,0,5.78,2.477,5.78,6.893,0,4.6-2.053,7.206-5.906,7.206m.021-12.1H56.34v10.081h1.005c2.409,0,3.686-1.853,3.686-5.146,0-3.146-1.277-4.935-3.644-4.935" fill="#1a1818"></path>
                            <rect id="Rectangle_3" data-name="Rectangle 3" width="2.241" height="14.1" transform="translate(71.987 89.613)" fill="#1a1818"></rect>
                            <path id="Path_15318" data-name="Path 15318" d="M85.811,93.507h-.043v10.206h-2.2v-14.1h2.6L90.4,99.36h.021V89.613H92.6v14.1H90.25Z" fill="#1a1818"></path>
                            <path id="Path_15319" data-name="Path 15319" d="M106,103.714h-2.2V91.654h-3.185v-2.04h8.525v2.04H106Z" fill="#1a1818"></path>
                            <path id="Path_15320" data-name="Path 15320" d="M123.03,91.988a5.987,5.987,0,0,0-2.512-.689,1.481,1.481,0,0,0-1.676,1.562c0,2.873,4.691,3.061,4.691,7.27A3.556,3.556,0,0,1,119.615,104a6.5,6.5,0,0,1-3.078-.832v-2.147a6.589,6.589,0,0,0,2.975,1.021,1.579,1.579,0,0,0,1.738-1.748c0-2.979-4.691-3.167-4.691-7.312,0-2.352,1.445-3.665,3.833-3.665a6.459,6.459,0,0,1,2.638.562Z" fill="#1a1818"></path>
                            <path id="Path_15321" data-name="Path 15321" d="M136.331,104.006c-2.974,0-4.377-1.708-4.377-5.374V89.614h2.22V98.82c0,2.165.713,3.206,2.241,3.206,1.508,0,2.221-1.021,2.221-3.188V89.614h2.2v9.018c0,3.644-1.447,5.374-4.5,5.374" fill="#1a1818"></path>
                            <path id="Path_15322" data-name="Path 15322" d="M152.313,93.507h-.042v10.206h-2.2v-14.1h2.6l4.23,9.747h.021V89.613H159.1v14.1h-2.346Z" fill="#1a1818"></path>
                        </g>
                        <path id="Path_15323" data-name="Path 15323" d="M120.788,68h-13.07l6.536-10-6.536-10L88.112,78h39.211Z" fill="#317348"></path>
                    </g>
                </g>
            </g>
        </svg>